<?xml version="1.0" encoding="UTF-8"?>
<svg id="Layer_2" data-name="Layer 2" xmlns="http://www.w3.org/2000/svg" viewBox="0 0 2880 551.3">
  <g id="Layer_1-2" data-name="Layer 1">
    <g id="logo_design" data-name="logo design">
      <path d="M293.24,126.6V0L0,158.84v337.86l233.72-126.61v126.62l293.23-158.86V0l-233.71,126.6ZM233.72,158.84v143.56l-174.2,94.37v-202.48l174.2-94.37v58.92ZM467.43,302.4l-174.19,94.37v-202.48l174.19-94.37v202.48Z"/>
      <g>
        <path d="M956.43,333.77h-1c-63.07-96.85-125.65-187.24-188.72-279.12h-65.57v387.39h62.59V167.4h.98c63.09,95.37,126.66,183.76,188.73,274.66h65.55V54.66h-62.57v279.12Z"/>
        <path d="M1218.22,397.84c-43.21,0-77.48-28.81-81.95-77.97h209.09v-17.38c0-104.29-67.05-144.52-131.12-144.52-80.45,0-137.57,62.09-137.57,147s60.59,145.52,141.55,145.52c62.57,0,110.26-34.26,129.12-82.95l-55.12-21.84c-12.92,31.79-39.74,52.14-74,52.14ZM1213.74,208.63c34.26,0,68.04,18.86,72.02,69.03h-146.52c6.95-40.73,33.78-69.03,74.5-69.03Z"/>
      </g>
    </g>
  </g>
</svg>